<?xml version="1.0" encoding="utf-8"?>
<!-- Generator: Adobe Illustrator 24.1.0, SVG Export Plug-In . SVG Version: 6.00 Build 0)  -->
<svg version="1.1" id="Layer_1" xmlns="http://www.w3.org/2000/svg" xmlns:xlink="http://www.w3.org/1999/xlink" x="0px" y="0px"
	 viewBox="0 0 170 60" style="enable-background:new 0 0 170 60;" xml:space="preserve">
<style type="text/css">
	.st0{fill-rule:evenodd;clip-rule:evenodd;fill:#00354E;}
	.st1{fill-rule:evenodd;clip-rule:evenodd;fill:#0093D3;}
	.st2{fill-rule:evenodd;clip-rule:evenodd;fill:#006F9E;}
	.st3{fill-rule:evenodd;clip-rule:evenodd;fill:#005578;}
</style>
<g>
	<polygon class="st0" points="19.02,12.23 39.36,33.66 37.6,16.24 	"/>
	<polygon class="st0" points="46.76,41.55 49.91,39.12 52.38,46.01 	"/>
	<polygon class="st1" points="49.91,39.12 47.07,34.86 39.36,33.66 	"/>
	<polygon class="st2" points="39.36,33.66 46.76,41.55 49.91,39.12 	"/>
	<polygon class="st3" points="46.7,41.49 28.06,37.14 39.36,33.66 	"/>
	<polygon class="st2" points="41.4,40.25 26.39,47.48 28.06,37.14 	"/>
	<polygon class="st1" points="26.39,47.48 15.91,42.08 28.06,37.14 	"/>
	<polygon class="st3" points="36.18,42.76 35.18,52.53 28.85,46.29 	"/>
	<polygon class="st0" points="35.18,52.53 43.41,56.2 35.43,50.17 	"/>
	<polygon class="st3" points="41.58,54.82 46.9,56.37 43.41,56.2 	"/>
	<polygon class="st0" points="15.91,42.08 0,45.3 23.18,45.82 	"/>
	<polygon class="st3" points="0,45.3 9.23,51.86 17.47,45.7 	"/>
	<polygon class="st2" points="15.73,23.67 32.68,19.11 1.12,3.21 	"/>
	<polygon class="st1" points="32.68,19.11 39.36,33.66 15.73,23.67 	"/>
	<polygon class="st2" points="15.73,23.67 22.88,37.95 39.36,33.66 	"/>
	<polygon class="st3" points="19.02,12.23 11,0 37.6,16.24 	"/>
</g>
<g>
	<path d="M48.35,52.53l-0.95-2.37h-4.02l-1.01,2.37l-0.05,0.17c-0.01,0.01-0.06,0.13-0.16,0.37c-0.15,0.36-0.22,0.72-0.22,1.1
		c0,0.65,0.3,1.1,0.9,1.38v0.23c-0.12,0-0.33-0.02-0.63-0.06c-0.42-0.06-0.8-0.09-1.13-0.09c-0.31,0-0.68,0.03-1.13,0.09
		c-0.31,0.04-0.51,0.06-0.61,0.06v-0.23c0.78-0.48,1.49-1.46,2.13-2.95L45,44.36c-0.27-0.65-0.64-1.16-1.11-1.52
		c-0.47-0.36-1.02-0.55-1.66-0.59v-0.23h0.37c0.33,0,0.79,0.03,1.38,0.08c0.61,0.05,1.01,0.08,1.19,0.08l5.38,13.44
		c-0.69,0.02-1.52,0.07-2.48,0.15v-0.23c0.54-0.11,0.81-0.46,0.81-1.05C48.88,54.06,48.7,53.41,48.35,52.53z M43.8,49.21h3.22
		l-1.55-3.88L43.8,49.21z M51.41,55.62l-5.38-13.44h1.04c0.14,0.44,0.34,1,0.6,1.67c0.28,0.72,0.44,1.15,0.48,1.29
		c0.04,0.08,0.07,0.17,0.1,0.27l2.51,6.21c0.87,2.16,1.81,3.47,2.79,3.93v0.23C52.57,55.67,51.86,55.62,51.41,55.62z"/>
	<path d="M56.75,42.18v13.44c-0.62,0.03-1.36,0.08-2.24,0.15v-0.23c0.91-0.3,1.36-1.45,1.36-3.46v-6.64c0-1.77-0.45-2.83-1.36-3.19
		v-0.23C55.25,42.11,56,42.16,56.75,42.18z M57.54,55.62V42.18l1.82-0.15c0.9,0,1.62,0.34,2.15,1.01c0.53,0.68,0.79,1.54,0.79,2.59
		c0,1.31-0.48,2.25-1.43,2.83c1.54,0.42,2.3,1.61,2.3,3.58c0,1-0.25,1.87-0.76,2.61c-0.51,0.75-1.34,1.12-2.47,1.12
		c-0.42,0-0.87-0.03-1.36-0.09C58.14,55.64,57.79,55.62,57.54,55.62z M58.41,45.66v2.56h0.82c0.68,0,1.21-0.22,1.58-0.66
		s0.55-1.08,0.55-1.91c0-0.86-0.2-1.51-0.6-1.96c-0.4-0.44-0.87-0.66-1.43-0.66c-0.31,0-0.55,0.09-0.74,0.27
		C58.48,43.75,58.41,44.54,58.41,45.66z M59.48,49.13h-1.07v2.29c0,1.61,0.15,2.62,0.44,3.05c0.25,0.23,0.62,0.34,1.12,0.34
		c0.83,0,1.42-0.29,1.78-0.87c0.34-0.58,0.51-1.25,0.51-2.03c0-0.62-0.11-1.15-0.33-1.59c-0.23-0.45-0.51-0.76-0.85-0.94
		C60.72,49.21,60.18,49.13,59.48,49.13z M62.45,48.04c0.43-0.68,0.65-1.49,0.65-2.42c0-0.74-0.12-1.4-0.36-1.99
		c-0.25-0.6-0.54-1.01-0.86-1.21c0.7,0.18,1.24,0.54,1.62,1.08c0.38,0.55,0.56,1.17,0.56,1.84c0,0.6-0.16,1.16-0.47,1.68
		C63.28,47.54,62.9,47.88,62.45,48.04z M62.99,55.26c0.65-0.82,0.98-1.88,0.98-3.16c0-1.38-0.34-2.49-1.02-3.34
		c1.35,0.59,2.03,1.67,2.03,3.24c0,0.77-0.19,1.46-0.56,2.07C64.03,54.67,63.56,55.07,62.99,55.26z"/>
	<path d="M68.64,42.18v13.44c-0.5,0-1.3,0.05-2.38,0.15v-0.23c0.55-0.18,0.93-0.56,1.16-1.15c0.22-0.56,0.33-1.73,0.33-3.49v-5.26
		c0-1.08-0.11-1.87-0.33-2.36c-0.22-0.48-0.61-0.82-1.16-1.02v-0.23C67.18,42.11,67.98,42.16,68.64,42.18z M70.04,55.62h-0.65V42.18
		c0.98-0.03,1.67-0.05,2.06-0.09c0.59-0.04,0.99-0.06,1.22-0.06c1.07,0,1.98,0.29,2.73,0.88c0.75,0.59,1.31,1.37,1.68,2.33
		c0.37,0.94,0.55,2.14,0.55,3.59c0,2.21-0.44,3.92-1.33,5.13c-0.9,1.21-2.11,1.81-3.64,1.81c-0.71,0-1.51-0.05-2.41-0.14
		C70.22,55.62,70.15,55.62,70.04,55.62z M70.45,43.37c-0.11,0.38-0.17,1.72-0.17,4.02v3.11c0,1.86,0.1,3.22,0.31,4.08
		c0.55,0.2,1.17,0.31,1.88,0.31c1.31,0,2.35-0.5,3.1-1.49c0.76-1,1.14-2.48,1.14-4.42c0-1.9-0.38-3.38-1.13-4.44
		s-1.86-1.58-3.33-1.58C71.49,42.95,70.89,43.08,70.45,43.37z M76.65,54.62c1.18-1.08,1.77-2.95,1.77-5.61
		c0-2.6-0.48-4.44-1.45-5.51c0.81,0.64,1.42,1.42,1.83,2.33s0.62,1.96,0.62,3.14C79.43,51.42,78.5,53.31,76.65,54.62z"/>
	<path d="M82.87,42.18h0.35v13.44h-0.7c-0.25,0-0.77,0.05-1.58,0.15v-0.23c0.38-0.12,0.67-0.34,0.87-0.65
		c0.21-0.32,0.34-0.69,0.42-1.11c0.08-0.44,0.12-1.38,0.12-2.8v-5.34c0-1.23-0.14-2.08-0.42-2.54c-0.28-0.46-0.61-0.74-0.99-0.84
		v-0.23C81.37,42.06,82.02,42.11,82.87,42.18z M88.25,55.62h-4.26V42.18h3.1c0.58,0,1.68-0.05,3.3-0.15
		c-0.01,0.25-0.02,0.45-0.02,0.57c0,0.17,0.02,0.57,0.05,1.19c0.02,0.42,0.03,0.64,0.03,0.68v0.32h-0.18
		c-0.26-0.73-0.55-1.2-0.87-1.42c-0.33-0.2-0.94-0.31-1.84-0.31h-1.69c-0.27,0-0.52,0.02-0.75,0.06c-0.13,0.29-0.2,0.98-0.22,2.07
		l-0.02,0.87v2.08h2.3c0.87,0,1.44-0.09,1.73-0.27c0.28-0.18,0.51-0.6,0.68-1.27h0.23c-0.06,0.76-0.08,1.43-0.08,1.99
		c0,0.36,0.02,0.83,0.06,1.4c0.01,0.17,0.03,0.51,0.05,1.01h-0.23c-0.06-0.75-0.25-1.26-0.57-1.54c-0.32-0.28-0.82-0.42-1.5-0.42
		h-2.68v2.78c0,1.07,0.05,2.01,0.15,2.82c0.3,0.05,0.62,0.08,0.96,0.08h1.62c0.88,0,1.55-0.12,1.99-0.36
		c0.47-0.25,0.93-0.79,1.39-1.64h0.21c-0.08,0.39-0.2,0.84-0.35,1.35c-0.19,0.66-0.33,1.24-0.42,1.72
		C89.62,55.67,88.89,55.62,88.25,55.62z"/>
	<path d="M94.83,42.18v13.44h-0.46c-0.18,0-0.46,0.03-0.84,0.08c-0.33,0.05-0.71,0.08-1.15,0.08v-0.23c0.46-0.06,0.83-0.33,1.13-0.8
		c0.3-0.48,0.45-1.39,0.45-2.75v-6.55c0-1.85-0.53-2.91-1.58-3.17v-0.23C92.83,42.09,93.65,42.14,94.83,42.18z M95.92,55.62h-0.31
		V42.18c0.43,0,0.88-0.02,1.36-0.06c0.55-0.06,1.01-0.09,1.35-0.09c0.97,0,1.7,0.36,2.17,1.07c0.48,0.71,0.71,1.58,0.71,2.61
		c0,1.76-0.62,2.89-1.87,3.38c0.62,0.1,1.14,0.32,1.56,0.66c0.45,0.37,1.13,1.1,2.04,2.19c1.39,1.68,2.52,2.52,3.39,2.52
		c0.18,0,0.36-0.07,0.54-0.22l0.04,0.23c-0.28,0.44-0.68,0.66-1.18,0.66c-0.54,0-1.11-0.24-1.7-0.73c-0.55-0.46-1.38-1.36-2.48-2.7
		c-1.32-1.63-2.61-2.45-3.86-2.45c0.77,0.29,1.82,1.26,3.14,2.92c0.93,1.16,1.68,2,2.24,2.52c0.57,0.53,1.11,0.79,1.63,0.79v0.11
		c-0.24,0.1-0.48,0.15-0.71,0.15c-0.69,0-1.29-0.21-1.79-0.63c-0.27-0.23-0.61-0.58-1.03-1.05s-0.92-1.08-1.5-1.83
		c-0.85-1.09-1.49-1.83-1.9-2.22c-0.44-0.4-0.87-0.68-1.29-0.84v3.02c0,2.03,0.51,3.14,1.54,3.32v0.23
		C97.18,55.67,96.47,55.62,95.92,55.62z M96.49,45.69v2.77c0.42,0.13,0.87,0.19,1.36,0.19c1.6,0,2.4-1,2.4-2.98
		c0-1.86-0.79-2.79-2.38-2.79c-0.51,0-0.91,0.12-1.19,0.37C96.56,43.58,96.49,44.39,96.49,45.69z M101.32,48.44
		c0.46-0.88,0.69-1.84,0.69-2.89c0-0.96-0.27-1.92-0.8-2.89c1.22,0.62,1.83,1.6,1.83,2.93C103.05,46.94,102.47,47.89,101.32,48.44z"
		/>
	<path d="M109.84,42.18v13.44h-0.46c-0.18,0-0.46,0.03-0.84,0.08c-0.33,0.05-0.71,0.08-1.15,0.08v-0.23
		c0.46-0.06,0.83-0.33,1.13-0.8c0.3-0.48,0.45-1.39,0.45-2.75v-6.55c0-1.85-0.53-2.91-1.58-3.17v-0.23
		C107.84,42.09,108.66,42.14,109.84,42.18z M110.93,55.62h-0.31V42.18c0.43,0,0.88-0.02,1.36-0.06c0.55-0.06,1.01-0.09,1.35-0.09
		c0.97,0,1.7,0.36,2.17,1.07c0.48,0.71,0.71,1.58,0.71,2.61c0,1.76-0.62,2.89-1.87,3.38c0.62,0.1,1.14,0.32,1.56,0.66
		c0.45,0.37,1.13,1.1,2.04,2.19c1.39,1.68,2.52,2.52,3.39,2.52c0.18,0,0.36-0.07,0.54-0.22l0.04,0.23
		c-0.28,0.44-0.68,0.66-1.18,0.66c-0.54,0-1.11-0.24-1.7-0.73c-0.55-0.46-1.38-1.36-2.48-2.7c-1.32-1.63-2.61-2.45-3.86-2.45
		c0.77,0.29,1.82,1.26,3.14,2.92c0.93,1.16,1.68,2,2.24,2.52c0.57,0.53,1.11,0.79,1.63,0.79v0.11c-0.24,0.1-0.48,0.15-0.71,0.15
		c-0.69,0-1.29-0.21-1.79-0.63c-0.27-0.23-0.61-0.58-1.03-1.05s-0.92-1.08-1.5-1.83c-0.85-1.09-1.49-1.83-1.9-2.22
		c-0.44-0.4-0.87-0.68-1.29-0.84v3.02c0,2.03,0.51,3.14,1.54,3.32v0.23C112.19,55.67,111.48,55.62,110.93,55.62z M111.5,45.69v2.77
		c0.42,0.13,0.87,0.19,1.36,0.19c1.6,0,2.4-1,2.4-2.98c0-1.86-0.79-2.79-2.38-2.79c-0.51,0-0.91,0.12-1.19,0.37
		C111.57,43.58,111.5,44.39,111.5,45.69z M116.33,48.44c0.46-0.88,0.69-1.84,0.69-2.89c0-0.96-0.27-1.92-0.8-2.89
		c1.22,0.62,1.83,1.6,1.83,2.93C118.06,46.94,117.48,47.89,116.33,48.44z"/>
	<path d="M131.13,52.53l-0.95-2.37h-4.02l-1.01,2.37l-0.05,0.17c-0.01,0.01-0.06,0.13-0.16,0.37c-0.15,0.36-0.22,0.72-0.22,1.1
		c0,0.65,0.3,1.1,0.9,1.38v0.23c-0.12,0-0.33-0.02-0.63-0.06c-0.42-0.06-0.8-0.09-1.13-0.09c-0.31,0-0.68,0.03-1.13,0.09
		c-0.31,0.04-0.51,0.06-0.61,0.06v-0.23c0.78-0.48,1.49-1.46,2.13-2.95l3.54-8.24c-0.27-0.65-0.64-1.16-1.11-1.52
		c-0.47-0.36-1.03-0.55-1.66-0.59v-0.23h0.37c0.33,0,0.79,0.03,1.38,0.08c0.61,0.05,1.01,0.08,1.19,0.08l5.38,13.44
		c-0.69,0.02-1.52,0.07-2.48,0.15v-0.23c0.54-0.11,0.81-0.46,0.81-1.05C131.66,54.06,131.49,53.41,131.13,52.53z M126.58,49.21h3.22
		l-1.55-3.88L126.58,49.21z M134.19,55.62l-5.38-13.44h1.04c0.14,0.44,0.34,1,0.6,1.67c0.28,0.72,0.44,1.15,0.48,1.29
		c0.04,0.08,0.07,0.17,0.1,0.27l2.5,6.21c0.87,2.16,1.81,3.47,2.79,3.93v0.23C135.35,55.67,134.64,55.62,134.19,55.62z"/>
	<path d="M146.06,42.18l-8.26,13.44h-1.04l7.72-12.51h-3.73c-1.17,0-1.99,0.16-2.47,0.47c-0.49,0.32-0.86,0.96-1.12,1.9h-0.25
		c0.01-0.4,0.07-1.07,0.18-2.01c0.06-0.46,0.08-0.78,0.08-0.97c0-0.03-0.01-0.18-0.02-0.47c0.72,0.1,1.69,0.15,2.92,0.15H146.06z
		 M138.76,55.62l8.28-13.44h1.03l-7.69,12.51h3.42c1.34,0,2.3-0.26,2.87-0.79c0.55-0.51,0.97-1.17,1.27-1.96h0.25
		c-0.01,0.37-0.15,1.03-0.39,1.98c-0.23,0.89-0.37,1.51-0.39,1.86c-0.96-0.1-1.83-0.15-2.62-0.15H138.76z"/>
	<path d="M151.74,42.18v13.44c-0.51,0-1.29,0.05-2.33,0.15v-0.23c0.55-0.17,0.93-0.54,1.14-1.11c0.21-0.56,0.32-1.58,0.32-3.05v-5.7
		c0-1.11-0.11-1.92-0.33-2.44c-0.22-0.51-0.6-0.84-1.13-0.99v-0.23C150.27,42.11,151.05,42.16,151.74,42.18z M152.54,55.62V42.18
		c0.88,0,1.66-0.05,2.34-0.15v0.23c-0.42,0.09-0.77,0.37-1.04,0.82c-0.28,0.47-0.43,1.43-0.43,2.89v6.08c0,1.31,0.15,2.19,0.45,2.64
		c0.3,0.45,0.64,0.74,1.02,0.85v0.23C154.21,55.67,153.43,55.62,152.54,55.62z"/>
	<path d="M158.89,42.18v13.44c-0.36,0-1.08,0.05-2.17,0.15v-0.23c0.86-0.21,1.29-1,1.29-2.37v-8.44c0-0.76-0.09-1.32-0.27-1.68
		c-0.18-0.36-0.52-0.62-1.02-0.79v-0.23C157.41,42.11,158.13,42.16,158.89,42.18z M161.03,47.84l5.92,7.78h-1.17l-5.21-6.94v4.49
		c0,0.71,0.1,1.23,0.29,1.58c0.18,0.36,0.53,0.62,1.03,0.79v0.23c-0.94-0.1-1.67-0.15-2.21-0.15V42.18
		c0.97-0.04,1.71-0.09,2.21-0.15v0.23c-0.53,0.14-0.88,0.43-1.06,0.85c-0.18,0.42-0.27,1.36-0.27,2.82v2.35L161.03,47.84z
		 M168.44,55.62h-0.45l-6.35-8.36l2.44-2.33c0.84-0.8,1.26-1.41,1.26-1.84c0-0.33-0.23-0.61-0.69-0.83v-0.23
		c0.32,0,0.75,0.03,1.29,0.09c0.48,0.04,0.84,0.06,1.07,0.06c0.22,0,0.5-0.02,0.83-0.05c0.48-0.04,0.93-0.08,1.35-0.1v0.23
		c-1,0.31-2.09,1.01-3.27,2.1l-0.71,0.66c-0.06,0.05-0.11,0.09-0.14,0.13l-2.24,2.16l4.24,5.62c1.29,1.72,2.26,2.59,2.91,2.61v0.23
		C168.99,55.67,168.48,55.62,168.44,55.62z"/>
</g>
<g>
	<path d="M38.47,21.55l5.68,5.61v5.14h-0.26c-0.64,0-1.37,0.04-2.2,0.12v-0.18c0.48-0.1,0.86-0.33,1.14-0.67
		c0.27-0.33,0.4-0.98,0.4-1.94v-2.23l-3.48-3.43c-1.33-1.3-2.53-2.08-3.6-2.36v-0.18c0.61,0.08,1.26,0.12,1.97,0.12H38.47z M45,32.3
		v-5.44l-5.47-5.31h0.31c0.87,0,1.77-0.04,2.69-0.12v0.18c-0.43,0.12-0.65,0.31-0.65,0.57c0,0.35,0.44,0.96,1.31,1.81l2.31,2.25
		l2.17-2.36c0.48-0.52,0.72-0.99,0.72-1.41c0-0.47-0.25-0.76-0.76-0.87v-0.18c0.18,0,0.62,0.03,1.34,0.08
		c0.3,0.03,0.56,0.04,0.79,0.04c0.12,0,0.77-0.04,1.93-0.12v0.18c-0.55,0.15-0.99,0.36-1.34,0.62c-0.33,0.27-0.7,0.64-1.13,1.11
		c-0.02,0.04-0.07,0.1-0.15,0.18l-3.19,3.47v2.59c0,1.57,0.53,2.45,1.58,2.65v0.18c-1.34-0.08-2.03-0.12-2.07-0.12H45z"/>
	<path d="M61.34,29.83l-0.97-1.9h-4.13l-1.04,1.9l-0.05,0.13c-0.01,0.01-0.06,0.11-0.16,0.3c-0.15,0.29-0.23,0.58-0.23,0.88
		c0,0.52,0.31,0.88,0.92,1.1v0.18c-0.12,0-0.34-0.02-0.65-0.05c-0.43-0.05-0.82-0.07-1.16-0.07c-0.31,0-0.7,0.02-1.16,0.07
		c-0.31,0.03-0.52,0.05-0.62,0.05v-0.18c0.8-0.38,1.53-1.17,2.19-2.36l3.63-6.59c-0.28-0.52-0.66-0.93-1.14-1.21
		c-0.49-0.29-1.05-0.44-1.7-0.47v-0.18h0.38c0.34,0,0.81,0.02,1.41,0.06c0.63,0.04,1.04,0.06,1.23,0.06l5.53,10.75
		c-0.71,0.01-1.56,0.05-2.55,0.12v-0.18c0.55-0.09,0.83-0.37,0.83-0.84C61.89,31.05,61.71,30.53,61.34,29.83z M56.67,27.17h3.31
		l-1.59-3.1L56.67,27.17z M64.48,32.3l-5.53-10.75h1.07c0.15,0.35,0.35,0.8,0.61,1.34c0.29,0.58,0.46,0.92,0.49,1.03
		c0.04,0.06,0.07,0.13,0.1,0.21l2.57,4.97c0.9,1.73,1.85,2.77,2.87,3.14v0.18C65.68,32.34,64.95,32.3,64.48,32.3z"/>
	<path d="M68.01,28.76h0.25c0.05,0.87,0.43,1.59,1.13,2.15c0.69,0.56,1.47,0.84,2.36,0.84c0.69,0,1.24-0.18,1.68-0.54
		c0.43-0.36,0.65-0.79,0.65-1.29c0-0.53-0.21-0.94-0.62-1.23c-0.4-0.29-1.19-0.61-2.38-0.97c-0.95-0.29-1.62-0.53-2.03-0.72
		c-0.47-0.22-0.83-0.53-1.09-0.91c-0.28-0.39-0.43-0.82-0.43-1.31c0-0.54,0.19-1.06,0.58-1.58c-0.09,0.27-0.13,0.5-0.13,0.69
		c0,0.53,0.13,1,0.4,1.4c0.28,0.42,0.62,0.73,1.03,0.94c0.41,0.22,1.09,0.47,2.05,0.74c1.25,0.35,2.15,0.74,2.7,1.17
		c0.53,0.42,0.8,0.97,0.8,1.67c0,0.69-0.28,1.31-0.83,1.87c-0.56,0.56-1.4,0.85-2.52,0.85c-0.45,0-1.08-0.08-1.88-0.23
		c-0.7-0.14-1.23-0.21-1.58-0.21l-0.08-0.08c0.01-0.12,0.01-0.27,0.01-0.45c0-0.22-0.02-0.55-0.07-1.01
		c-0.04-0.46-0.05-0.8-0.05-1.02C67.97,29.22,67.98,28.97,68.01,28.76z M75.74,24.49h-0.23c-0.01-0.79-0.34-1.37-1.01-1.75
		c-0.65-0.37-1.44-0.56-2.36-0.56c-0.74,0-1.34,0.15-1.82,0.44c-0.48,0.29-0.72,0.64-0.72,1.05c0,0.44,0.19,0.78,0.57,1.03
		c0.39,0.27,1.17,0.6,2.33,0.97c1.08,0.35,1.84,0.63,2.27,0.85c0.46,0.24,0.84,0.58,1.15,1.02c0.31,0.46,0.46,0.96,0.46,1.52
		c0,0.85-0.34,1.52-1.01,2c0.25-0.32,0.37-0.77,0.37-1.35c0-0.54-0.14-1.03-0.41-1.45c-0.28-0.43-0.63-0.77-1.05-1.02
		c-0.42-0.26-1.11-0.53-2.07-0.83c-1.44-0.44-2.38-0.82-2.81-1.13c-0.44-0.32-0.66-0.82-0.66-1.49c0-0.78,0.34-1.38,1.01-1.83
		c0.67-0.43,1.62-0.64,2.86-0.64c0.84,0,1.86,0.14,3.08,0.41v0.07l0.02,0.39c0,0.2,0.01,0.45,0.02,0.73
		c0.02,0.35,0.03,0.65,0.03,0.92C75.76,24.02,75.75,24.24,75.74,24.49z"/>
	<path d="M78.05,28.76h0.25c0.05,0.87,0.43,1.59,1.13,2.15c0.69,0.56,1.47,0.84,2.36,0.84c0.69,0,1.24-0.18,1.68-0.54
		c0.43-0.36,0.65-0.79,0.65-1.29c0-0.53-0.21-0.94-0.62-1.23c-0.4-0.29-1.19-0.61-2.38-0.97c-0.95-0.29-1.62-0.53-2.03-0.72
		c-0.47-0.22-0.83-0.53-1.09-0.91c-0.28-0.39-0.43-0.82-0.43-1.31c0-0.54,0.19-1.06,0.58-1.58c-0.09,0.27-0.13,0.5-0.13,0.69
		c0,0.53,0.13,1,0.4,1.4c0.28,0.42,0.62,0.73,1.03,0.94c0.41,0.22,1.09,0.47,2.05,0.74c1.25,0.35,2.15,0.74,2.7,1.17
		c0.53,0.42,0.8,0.97,0.8,1.67c0,0.69-0.28,1.31-0.83,1.87c-0.56,0.56-1.4,0.85-2.52,0.85c-0.45,0-1.08-0.08-1.88-0.23
		c-0.7-0.14-1.23-0.21-1.58-0.21l-0.08-0.08c0.01-0.12,0.01-0.27,0.01-0.45c0-0.22-0.02-0.55-0.07-1.01
		c-0.04-0.46-0.05-0.8-0.05-1.02C78.01,29.22,78.02,28.97,78.05,28.76z M85.78,24.49h-0.23c-0.01-0.79-0.34-1.37-1.01-1.75
		c-0.65-0.37-1.44-0.56-2.36-0.56c-0.74,0-1.34,0.15-1.82,0.44c-0.48,0.29-0.72,0.64-0.72,1.05c0,0.44,0.19,0.78,0.57,1.03
		c0.39,0.27,1.17,0.6,2.33,0.97c1.08,0.35,1.84,0.63,2.27,0.85c0.46,0.24,0.84,0.58,1.15,1.02c0.31,0.46,0.46,0.96,0.46,1.52
		c0,0.85-0.34,1.52-1.01,2c0.25-0.32,0.37-0.77,0.37-1.35c0-0.54-0.14-1.03-0.41-1.45c-0.28-0.43-0.63-0.77-1.05-1.02
		c-0.42-0.26-1.11-0.53-2.07-0.83c-1.44-0.44-2.38-0.82-2.81-1.13c-0.44-0.32-0.66-0.82-0.66-1.49c0-0.78,0.34-1.38,1.01-1.83
		c0.67-0.43,1.62-0.64,2.86-0.64c0.84,0,1.86,0.14,3.08,0.41v0.07l0.02,0.39c0,0.2,0.01,0.45,0.02,0.73
		c0.02,0.35,0.03,0.65,0.03,0.92C85.8,24.02,85.79,24.24,85.78,24.49z"/>
	<path d="M90.44,21.55V32.3c-0.53,0-1.33,0.04-2.4,0.12v-0.18c0.56-0.14,0.95-0.43,1.17-0.89c0.22-0.45,0.33-1.26,0.33-2.44v-4.56
		c0-0.88-0.11-1.53-0.34-1.95c-0.23-0.41-0.61-0.67-1.16-0.8v-0.18C88.94,21.49,89.73,21.53,90.44,21.55z M91.26,32.3V21.55
		c0.91,0,1.71-0.04,2.41-0.12v0.18c-0.43,0.08-0.79,0.29-1.07,0.65c-0.29,0.37-0.44,1.15-0.44,2.32v4.87c0,1.05,0.15,1.75,0.46,2.11
		s0.66,0.59,1.05,0.68v0.18C92.99,32.34,92.18,32.3,91.26,32.3z"/>
	<path d="M97.87,21.55V32.3h-0.47c-0.18,0-0.47,0.02-0.87,0.06c-0.34,0.04-0.73,0.06-1.18,0.06v-0.18c0.47-0.05,0.85-0.26,1.16-0.64
		s0.46-1.12,0.46-2.2v-5.24c0-1.48-0.54-2.33-1.62-2.54v-0.18C95.81,21.47,96.65,21.51,97.87,21.55z M98.98,32.3h-0.32V21.55
		c0.44,0,0.91-0.02,1.4-0.05c0.57-0.05,1.03-0.07,1.39-0.07c1,0,1.74,0.29,2.23,0.86c0.49,0.56,0.73,1.26,0.73,2.09
		c0,1.41-0.64,2.31-1.92,2.7c0.63,0.08,1.17,0.26,1.6,0.53c0.46,0.29,1.16,0.88,2.09,1.75c1.42,1.35,2.58,2.02,3.48,2.02
		c0.18,0,0.37-0.06,0.56-0.17l0.04,0.18c-0.29,0.35-0.7,0.53-1.21,0.53c-0.55,0-1.14-0.19-1.74-0.58c-0.57-0.37-1.42-1.09-2.55-2.16
		c-1.36-1.31-2.68-1.96-3.96-1.96c0.79,0.23,1.87,1.01,3.23,2.34c0.96,0.92,1.72,1.6,2.3,2.02c0.58,0.42,1.14,0.63,1.67,0.63v0.09
		c-0.25,0.08-0.49,0.12-0.73,0.12c-0.71,0-1.32-0.17-1.84-0.5c-0.28-0.18-0.63-0.46-1.06-0.84c-0.43-0.38-0.94-0.87-1.54-1.46
		c-0.88-0.87-1.53-1.46-1.95-1.77c-0.45-0.32-0.89-0.54-1.33-0.67v2.42c0,1.63,0.53,2.51,1.58,2.65v0.18
		C100.27,32.34,99.55,32.3,98.98,32.3z M99.57,24.35v2.21c0.43,0.1,0.9,0.15,1.4,0.15c1.64,0,2.46-0.8,2.46-2.39
		c0-1.49-0.81-2.23-2.44-2.23c-0.53,0-0.93,0.1-1.22,0.3C99.64,22.67,99.57,23.32,99.57,24.35z M104.53,26.55
		c0.47-0.7,0.71-1.47,0.71-2.32c0-0.77-0.27-1.54-0.82-2.32c1.26,0.5,1.88,1.28,1.88,2.35C106.31,25.35,105.71,26.11,104.53,26.55z"
		/>
</g>
</svg>
